<?xml version="1.0" encoding="UTF-8"?>
<svg width="956px" height="288px" viewBox="0 0 956 288" version="1.1" xmlns="http://www.w3.org/2000/svg" xmlns:xlink="http://www.w3.org/1999/xlink">
    <g stroke="none" stroke-width="1" fill="none" fill-rule="evenodd">
        <g>
            <path d="M308.7503,76.5807 L308.7503,105.5207 L339.8713,105.5207 L339.8713,122.5697 L308.7503,122.5697 L308.7503,173.1137 C308.7503,184.0177 312.9143,187.3877 320.0493,187.3877 C324.8083,187.3877 329.7623,185.8047 335.9083,182.8317 L341.6553,200.2757 C333.3303,205.2337 324.6093,208.0047 315.6873,208.0047 C299.8293,208.0047 286.1513,198.8847 286.1513,177.2787 L286.1513,122.5697 L271.2843,122.5697 L271.2843,105.5207 L286.1513,105.5207 L286.1513,76.5807 L308.7503,76.5807 Z M531.3684,100.7613 C568.4344,100.7613 583.5014,124.9463 580.7254,163.0043 L501.0374,163.0043 C504.6064,179.2603 517.0944,189.3683 533.7464,189.3683 C545.2404,189.3683 555.7474,185.0113 563.4794,177.0813 L575.5724,189.9693 C565.2644,201.2663 550.1994,207.8063 531.9604,207.8063 C499.4524,207.8063 478.0444,186.2003 478.0444,154.4843 C478.0444,122.5703 500.0464,100.9613 531.3684,100.7613 Z M384.6248,59.9268 L384.6248,122.1708 C392.1558,107.3068 405.6358,100.7618 423.6758,100.7618 C448.2538,100.7618 462.9268,116.2278 462.9268,141.3988 L462.9268,207.0138 L440.1268,207.0138 L440.1268,147.7408 C440.1268,131.8838 430.6128,122.1708 414.7538,122.1708 C395.9218,122.3678 384.6248,136.4448 384.6248,155.0788 L384.6248,207.0138 L361.8268,207.0138 L361.8268,59.9268 L384.6248,59.9268 Z M531.5654,118.9963 C514.9134,118.9963 503.2164,129.5043 500.6404,146.3553 L560.9034,146.3553 C560.1114,129.3083 548.8114,118.9963 531.5654,118.9963 Z" fill="#000100"></path>
            <path d="M711.064,100.7613 C743.575,100.7613 765.975,122.3673 765.975,154.2853 C765.975,186.0013 743.575,207.8063 711.064,207.8063 C678.357,207.8063 655.958,186.0013 655.958,154.2853 C655.958,122.3673 678.357,100.7613 711.064,100.7613 Z M640.4969,58.9351 C649.0209,58.9351 657.5449,61.3151 664.2839,66.2681 L655.5629,83.7171 C651.2009,80.5421 645.8489,78.7591 641.0909,78.7591 C633.3609,78.7591 626.8189,83.1211 626.8189,93.0321 L626.8189,105.5201 L654.3719,105.5201 L654.3719,122.5701 L626.8189,122.5701 L626.8189,207.0141 L604.2189,207.0141 L604.2189,122.5701 L590.3449,122.5701 L590.3449,105.5201 L604.2189,105.5201 L604.2189,95.2151 C604.2189,70.6311 622.2589,58.9351 640.4969,58.9351 Z M841.7046,100.7612 L841.7046,122.5702 C820.4956,121.3792 807.0156,133.8672 805.2296,151.9042 L805.2296,207.0142 L782.4366,207.0142 L782.4366,101.5532 L805.2296,101.5532 L805.2296,122.5702 C812.3656,108.2962 825.0556,100.7612 841.7046,100.7612 Z M878.8287,59.9268 L878.8287,148.7358 L925.4147,101.5538 L951.5787,101.5538 L912.5267,142.3878 L954.5547,207.0138 L927.5927,207.0138 L896.6697,158.6438 L878.8287,177.4808 L878.8287,207.0138 L856.0327,207.0138 L856.0327,59.9268 L878.8287,59.9268 Z M711.064,120.3873 C692.035,120.3873 678.753,134.2613 678.753,154.4843 C678.753,174.8973 692.035,188.7763 711.064,188.7763 C729.898,188.7763 743.178,174.8973 743.178,154.4843 C743.178,134.2613 729.898,120.3873 711.064,120.3873 Z" fill="#BE9639"></path>
            <path d="M929.236,240.6031 L939.475,267.5241 L948.574,240.6031 L955.147,240.6031 L940.17,281.3011 C939.495,283.1961 938.327,284.7861 936.663,286.0721 C934.999,287.3571 932.859,288.0001 930.249,288.0001 C929.743,288.0001 929.214,287.9681 928.669,287.9051 C928.119,287.8421 927.509,287.7041 926.836,287.4931 L926.836,281.4271 C927.468,281.5531 928.088,281.6581 928.701,281.7431 C929.311,281.8271 929.805,281.8691 930.184,281.8691 C930.732,281.8691 931.207,281.7531 931.607,281.5221 C932.007,281.2891 932.418,280.8801 932.84,280.2901 C933.259,279.6991 933.691,278.8681 934.135,277.7931 C934.576,276.7191 935.092,275.3391 935.684,273.6541 L922.096,240.6031 L929.236,240.6031 Z M427.286,240.0351 C429.561,240.0351 431.646,240.4981 433.542,241.4241 C435.438,242.3521 437.081,243.5951 438.472,245.1531 C439.861,246.7131 440.945,248.5241 441.726,250.5881 C442.505,252.6521 442.895,254.8221 442.895,257.0961 C442.895,259.4991 442.536,261.7421 441.821,263.8271 C441.104,265.9131 440.093,267.7241 438.788,269.2621 C437.48,270.8011 435.933,272.0221 434.142,272.9271 C432.351,273.8331 430.382,274.2861 428.234,274.2861 C425.579,274.2861 423.241,273.6541 421.22,272.3901 C419.197,271.1261 417.595,269.4841 416.416,267.4611 L416.416,287.1151 L409.464,287.1151 L409.464,240.6031 L415.595,240.6031 L415.595,246.5441 C416.858,244.5631 418.49,242.9841 420.492,241.8041 C422.493,240.6251 424.758,240.0351 427.286,240.0351 Z M831.2221,240.0351 C833.4991,240.0351 835.5831,240.4981 837.4791,241.4241 C839.3741,242.3521 841.0171,243.5951 842.4091,245.1531 C843.7981,246.7131 844.8841,248.5241 845.6631,250.5881 C846.4421,252.6521 846.8321,254.8221 846.8321,257.0961 C846.8321,259.4991 846.4731,261.7421 845.7571,263.8271 C845.0411,265.9131 844.0301,267.7241 842.7251,269.2621 C841.4171,270.8011 839.8691,272.0221 838.0801,272.9271 C836.2901,273.8331 834.3191,274.2861 832.1701,274.2861 C829.5171,274.2861 827.1791,273.6541 825.1561,272.3901 C823.1341,271.1261 821.5331,269.4841 820.3531,267.4611 L820.3531,287.1151 L813.4011,287.1151 L813.4011,240.6031 L819.5331,240.6031 L819.5331,246.5441 C820.7971,244.5631 822.4281,242.9841 824.4301,241.8041 C826.4291,240.6251 828.6941,240.0351 831.2221,240.0351 Z M516.199,227.5221 L516.199,265.4391 C516.199,266.2401 516.337,266.8091 516.612,267.1451 C516.884,267.4831 517.379,267.6721 518.095,267.7131 L518.095,273.6541 C517.379,273.7811 516.8,273.8641 516.358,273.9071 C515.915,273.9491 515.545,273.9701 515.251,273.9701 C513.862,273.9701 512.724,273.6131 511.841,272.8961 C510.956,272.1801 510.471,271.2531 510.386,270.1161 L510.261,267.6511 C509.038,269.7151 507.374,271.3371 505.268,272.5171 C503.16,273.6951 500.822,274.2861 498.253,274.2861 C496.02,274.2861 493.955,273.8331 492.06,272.9271 C490.164,272.0221 488.521,270.7901 487.131,269.2301 C485.74,267.6721 484.654,265.8501 483.876,263.7651 C483.096,261.6781 482.708,259.4351 482.708,257.0341 C482.708,254.7171 483.074,252.5381 483.813,250.4931 C484.548,248.4501 485.583,246.6491 486.91,245.0911 C488.236,243.5321 489.794,242.3001 491.586,241.3931 C493.376,240.4871 495.345,240.0351 497.494,240.0351 C500.149,240.0351 502.487,240.6781 504.508,241.9621 C506.532,243.2481 508.112,244.8801 509.248,246.8601 L509.248,227.5221 L516.199,227.5221 Z M586.1537,240.035 C588.6407,240.035 590.9587,240.413 593.1057,241.172 C595.2547,241.931 597.1727,243.026 598.8587,244.459 L595.8867,248.629 C592.8107,246.186 589.5457,244.964 586.0917,244.964 C584.3237,244.964 582.8377,245.333 581.6367,246.07 C580.4347,246.807 579.8367,247.976 579.8367,249.577 C579.8367,250.251 579.9627,250.821 580.2157,251.284 C580.4687,251.748 580.8787,252.147 581.4477,252.484 C582.0147,252.821 582.7527,253.126 583.6597,253.4 C584.5647,253.675 585.6907,253.98 587.0387,254.317 C589.2727,254.864 591.2007,255.413 592.8237,255.959 C594.4447,256.508 595.7807,257.151 596.8347,257.887 C597.8887,258.625 598.6677,259.488 599.1747,260.478 C599.6787,261.469 599.9317,262.659 599.9317,264.048 C599.9317,267.208 598.7407,269.704 596.3617,271.537 C593.9807,273.369 590.7467,274.286 586.6607,274.286 C584.0077,274.286 581.3617,273.853 578.7297,272.991 C576.0957,272.127 573.8327,270.895 571.9367,269.293 L574.7157,264.871 C576.6967,266.304 578.6547,267.388 580.5947,268.124 C582.5317,268.863 584.5117,269.23 586.5357,269.23 C588.5977,269.23 590.2307,268.83 591.4317,268.029 C592.6327,267.23 593.2337,266.093 593.2337,264.618 C593.2337,263.227 592.5577,262.216 591.2097,261.584 C589.8617,260.953 587.7557,260.256 584.8927,259.499 C582.8277,258.952 581.0567,258.425 579.5837,257.919 C578.1077,257.412 576.9067,256.824 575.9797,256.149 C575.0537,255.476 574.3787,254.696 573.9587,253.811 C573.5367,252.926 573.3267,251.851 573.3267,250.588 C573.3267,248.904 573.6527,247.408 574.3057,246.101 C574.9597,244.796 575.8647,243.69 577.0247,242.784 C578.1817,241.878 579.5397,241.194 581.1007,240.729 C582.6587,240.266 584.3427,240.035 586.1537,240.035 Z M731.63,240.0355 C734.199,240.0355 736.529,240.4975 738.613,241.4245 C740.7,242.3515 742.489,243.5955 743.985,245.1535 C745.48,246.7125 746.628,248.5345 747.429,250.6205 C748.23,252.7055 748.63,254.8845 748.63,257.1605 C748.63,259.4345 748.23,261.6155 747.429,263.7015 C746.628,265.7865 745.48,267.6095 743.985,269.1675 C742.489,270.7255 740.7,271.9695 738.613,272.8955 C736.529,273.8225 734.199,274.2855 731.63,274.2855 C729.018,274.2855 726.668,273.8225 724.585,272.8955 C722.498,271.9695 720.718,270.7255 719.244,269.1675 C717.768,267.6095 716.632,265.7865 715.831,263.7015 C715.03,261.6155 714.63,259.4345 714.63,257.1605 C714.63,254.8845 715.03,252.7055 715.831,250.6205 C716.632,248.5345 717.78,246.7125 719.276,245.1535 C720.771,243.5955 722.561,242.3515 724.647,241.4245 C726.734,240.4975 729.059,240.0355 731.63,240.0355 Z M865.9171,240.0348 C870.4661,240.0348 874.0041,241.1938 876.5321,243.5108 C879.0601,245.8278 880.3241,249.1558 880.3241,253.4958 L880.3241,265.4388 C880.3241,266.9138 880.9351,267.6718 882.1571,267.7128 L882.1571,273.6538 C881.4821,273.7808 880.9031,273.8638 880.4181,273.9078 C879.9341,273.9488 879.4611,273.9698 878.9971,273.9698 C877.6491,273.9698 876.6071,273.6338 875.8691,272.9598 C875.1311,272.2858 874.6781,271.4218 874.5111,270.3678 L874.3211,268.2828 C872.8471,270.2208 871.0231,271.7068 868.8551,272.7378 C866.6841,273.7698 864.3561,274.2858 861.8721,274.2858 C860.2701,274.2858 858.7851,274.0218 857.4171,273.4968 C856.0471,272.9708 854.8671,272.2428 853.8781,271.3158 C852.8871,270.3898 852.1081,269.2928 851.5391,268.0288 C850.9691,266.7658 850.6871,265.3978 850.6871,263.9228 C850.6871,262.3648 851.0221,260.9528 851.6981,259.6888 C852.3711,258.4248 853.3291,257.3298 854.5731,256.4018 C855.8151,255.4758 857.2891,254.7588 858.9971,254.2528 C860.7021,253.7478 862.5881,253.4958 864.6531,253.4958 C866.2111,253.4958 867.7471,253.6318 869.2651,253.9058 C870.7821,254.1808 872.1501,254.5478 873.3721,255.0118 L873.3721,252.7368 C873.3721,250.2928 872.6781,248.3868 871.2891,247.0178 C869.8971,245.6488 867.8951,244.9638 865.2851,244.9638 C863.5151,244.9638 861.7781,245.2908 860.0701,245.9428 C858.3651,246.5968 856.6041,247.5338 854.7951,248.7558 L852.6461,244.3318 C856.9011,241.4678 861.3241,240.0348 865.9171,240.0348 Z M696.7442,240.0346 C700.1582,240.0346 703.0982,240.7826 705.5602,242.2786 C708.0262,243.7736 709.8692,245.7646 711.0912,248.2506 L704.3282,250.3986 C703.5272,249.0076 702.4542,247.9236 701.1052,247.1446 C699.7572,246.3656 698.2622,245.9746 696.6192,245.9746 C695.2302,245.9746 693.9342,246.2496 692.7332,246.7956 C691.5322,247.3446 690.4902,248.1146 689.6052,249.1026 C688.7202,250.0936 688.0252,251.2626 687.5182,252.6106 C687.0142,253.9586 686.7612,255.4536 686.7612,257.0966 C686.7612,258.6986 687.0242,260.1836 687.5502,261.5536 C688.0782,262.9216 688.7922,264.1126 689.6992,265.1226 C690.6062,266.1346 691.6582,266.9236 692.8592,267.4926 C694.0602,268.0616 695.3332,268.3456 696.6812,268.3456 C697.5232,268.3456 698.3682,268.2306 699.2092,267.9976 C700.0512,267.7676 700.8212,267.4406 701.5182,267.0186 C702.2132,266.5976 702.8232,266.1136 703.3482,265.5656 C703.8772,265.0176 704.2652,264.4286 704.5182,263.7966 L711.3452,265.8186 C710.2472,268.3046 708.4142,270.3366 705.8452,271.9166 C703.2762,273.4966 700.2422,274.2856 696.7442,274.2856 C694.1762,274.2856 691.8362,273.8226 689.7302,272.8956 C687.6242,271.9696 685.8232,270.7156 684.3272,269.1356 C682.8322,267.5556 681.6742,265.7346 680.8512,263.6696 C680.0312,261.6056 679.6192,259.4146 679.6192,257.0966 C679.6192,254.7816 680.0192,252.5896 680.8202,250.5246 C681.6212,248.4616 682.7692,246.6486 684.2652,245.0906 C685.7602,243.5326 687.5622,242.2996 689.6672,241.3926 C691.7732,240.4876 694.1322,240.0346 696.7442,240.0346 Z M461.9801,240.0348 C466.5301,240.0348 470.0681,241.1938 472.5971,243.5108 C475.1241,245.8278 476.3881,249.1558 476.3881,253.4958 L476.3881,265.4388 C476.3881,266.9138 476.9991,267.6718 478.2211,267.7128 L478.2211,273.6538 C477.5471,273.7808 476.9671,273.8638 476.4831,273.9078 C475.9991,273.9488 475.5251,273.9698 475.0611,273.9698 C473.7131,273.9698 472.6701,273.6338 471.9331,272.9598 C471.1961,272.2858 470.7431,271.4218 470.5751,270.3678 L470.3851,268.2828 C468.9101,270.2208 467.0881,271.7068 464.9191,272.7378 C462.7481,273.7698 460.4211,274.2858 457.9361,274.2858 C456.3341,274.2858 454.8491,274.0218 453.4811,273.4968 C452.1111,272.9708 450.9311,272.2428 449.9411,271.3158 C448.9511,270.3898 448.1721,269.2928 447.6041,268.0288 C447.0351,266.7658 446.7501,265.3978 446.7501,263.9228 C446.7501,262.3648 447.0861,260.9528 447.7621,259.6888 C448.4351,258.4248 449.3941,257.3298 450.6371,256.4018 C451.8791,255.4758 453.3541,254.7588 455.0611,254.2528 C456.7661,253.7478 458.6511,253.4958 460.7161,253.4958 C462.2741,253.4958 463.8131,253.6318 465.3301,253.9058 C466.8461,254.1808 468.2151,254.5478 469.4361,255.0118 L469.4361,252.7368 C469.4361,250.2928 468.7421,248.3868 467.3521,247.0178 C465.9621,245.6488 463.9601,244.9638 461.3481,244.9638 C459.5791,244.9638 457.8411,245.2908 456.1341,245.9428 C454.4291,246.5968 452.6691,247.5338 450.8581,248.7558 L448.7101,244.3318 C452.9631,241.4678 457.3871,240.0348 461.9801,240.0348 Z M620.8488,240.0355 C623.4178,240.0355 625.7478,240.4975 627.8318,241.4245 C629.9188,242.3515 631.7078,243.5955 633.2038,245.1535 C634.6988,246.7125 635.8468,248.5345 636.6478,250.6205 C637.4488,252.7055 637.8488,254.8845 637.8488,257.1605 C637.8488,259.4345 637.4488,261.6155 636.6478,263.7015 C635.8468,265.7865 634.6988,267.6095 633.2038,269.1675 C631.7078,270.7255 629.9188,271.9695 627.8318,272.8955 C625.7478,273.8225 623.4178,274.2855 620.8488,274.2855 C618.2368,274.2855 615.8868,273.8225 613.8038,272.8955 C611.7168,271.9695 609.9368,270.7255 608.4628,269.1675 C606.9868,267.6095 605.8508,265.7865 605.0498,263.7015 C604.2488,261.6155 603.8488,259.4345 603.8488,257.1605 C603.8488,254.8845 604.2488,252.7055 605.0498,250.6205 C605.8508,248.5345 606.9988,246.7125 608.4948,245.1535 C609.9898,243.5955 611.7798,242.3515 613.8658,241.4245 C615.9528,240.4975 618.2778,240.0355 620.8488,240.0355 Z M301.9083,240.0348 C306.4583,240.0348 309.9973,241.1938 312.5253,243.5108 C315.0523,245.8278 316.3163,249.1558 316.3163,253.4958 L316.3163,265.4388 C316.3163,266.9138 316.9273,267.6718 318.1503,267.7128 L318.1503,273.6538 C317.4753,273.7808 316.8953,273.8638 316.4113,273.9078 C315.9273,273.9488 315.4533,273.9698 314.9893,273.9698 C313.6413,273.9698 312.5983,273.6338 311.8613,272.9598 C311.1243,272.2858 310.6713,271.4218 310.5033,270.3678 L310.3133,268.2828 C308.8383,270.2208 307.0163,271.7068 304.8473,272.7378 C302.6763,273.7698 300.3503,274.2858 297.8643,274.2858 C296.2623,274.2858 294.7773,274.0218 293.4093,273.4968 C292.0393,272.9708 290.8593,272.2428 289.8693,271.3158 C288.8793,270.3898 288.1003,269.2928 287.5323,268.0288 C286.9633,266.7658 286.6783,265.3978 286.6783,263.9228 C286.6783,262.3648 287.0143,260.9528 287.6903,259.6888 C288.3633,258.4248 289.3223,257.3298 290.5653,256.4018 C291.8073,255.4758 293.2823,254.7588 294.9893,254.2528 C296.6943,253.7478 298.5793,253.4958 300.6443,253.4958 C302.2023,253.4958 303.7413,253.6318 305.2583,253.9058 C306.7743,254.1808 308.1433,254.5478 309.3643,255.0118 L309.3643,252.7368 C309.3643,250.2928 308.6703,248.3868 307.2803,247.0178 C305.8903,245.6488 303.8883,244.9638 301.2763,244.9638 C299.5073,244.9638 297.7693,245.2908 296.0623,245.9428 C294.3573,246.5968 292.5973,247.5338 290.7863,248.7558 L288.6383,244.3318 C292.8913,241.4678 297.3153,240.0348 301.9083,240.0348 Z M795.456,240.0352 C797.395,240.0352 799.006,240.4042 800.292,241.1412 C801.575,241.8782 802.598,242.8572 803.356,244.0792 C804.115,245.3012 804.641,246.7232 804.935,248.3442 C805.23,249.9662 805.379,251.6842 805.379,253.4952 L805.379,273.6542 L798.427,273.6542 L798.427,255.1382 C798.427,252.0642 797.921,249.8082 796.91,248.3762 C795.9,246.9442 794.423,246.2282 792.486,246.2282 C790.506,246.2282 788.705,246.9542 787.084,248.4082 C785.461,249.8622 784.293,251.7482 783.576,254.0632 L783.576,273.6542 L776.625,273.6542 L776.625,255.1382 C776.625,252.0202 776.118,249.7572 775.108,248.3442 C774.097,246.9332 772.643,246.2282 770.747,246.2282 C768.766,246.2282 766.955,246.9442 765.313,248.3762 C763.67,249.8082 762.49,251.6842 761.774,254.0012 L761.774,273.6542 L754.822,273.6542 L754.822,240.6032 L761.142,240.6032 L761.142,247.2382 C762.447,244.9222 764.164,243.1412 766.292,241.8982 C768.419,240.6562 770.853,240.0352 773.59,240.0352 C776.331,240.0352 778.489,240.7512 780.069,242.1832 C781.649,243.6152 782.629,245.4062 783.007,247.5542 C784.399,245.1122 786.145,243.2482 788.254,241.9622 C790.359,240.6772 792.762,240.0352 795.456,240.0352 Z M528.838,240.6032 L538.318,267.7772 L547.86,240.6032 L554.433,240.6032 L541.794,273.6542 L534.338,273.6542 L521.699,240.6032 L528.838,240.6032 Z M401.124,240.603 L401.124,273.654 L394.172,273.654 L394.172,240.603 L401.124,240.603 Z M566.313,240.603 L566.313,273.654 L559.361,273.654 L559.361,240.603 L566.313,240.603 Z M908.5117,240.0352 C910.4897,240.0352 912.1127,240.3932 913.3767,241.1082 C914.6407,241.8262 915.6417,242.8052 916.3777,244.0472 C917.1157,245.2912 917.6317,246.7232 917.9257,248.3442 C918.2207,249.9662 918.3697,251.6842 918.3697,253.4952 L918.3697,273.6542 L911.4177,273.6542 L911.4177,255.1382 C911.4177,252.0202 910.9217,249.7572 909.9317,248.3442 C908.9437,246.9332 907.4767,246.2282 905.5397,246.2282 C904.5297,246.2282 903.5187,246.4172 902.5077,246.7962 C901.4947,247.1752 900.5467,247.7132 899.6637,248.4082 C898.7787,249.1032 897.9877,249.9242 897.2927,250.8722 C896.5987,251.8202 896.0607,252.8632 895.6817,254.0012 L895.6817,273.6542 L888.7307,273.6542 L888.7307,240.6032 L895.0497,240.6032 L895.0497,247.2382 C896.3137,245.0062 898.1467,243.2482 900.5467,241.9622 C902.9497,240.6772 905.6027,240.0352 908.5117,240.0352 Z M661.8952,240.2868 C662.1672,240.2868 662.4092,240.3088 662.6212,240.3508 L662.6212,246.6068 C659.9242,246.6918 657.5342,247.3138 655.4482,248.4708 C653.3642,249.6298 651.8782,251.2838 650.9932,253.4318 L650.9932,273.6538 L644.0412,273.6538 L644.0412,240.6028 L650.4882,240.6028 L650.4882,247.9968 C651.6242,245.7228 653.1102,243.8998 654.9432,242.5298 C656.7742,241.1628 658.7452,240.4138 660.8502,240.2868 L661.8952,240.2868 Z M388.3907,240.2868 C388.6647,240.2868 388.9067,240.3088 389.1187,240.3508 L389.1187,246.6068 C386.4217,246.6918 384.0317,247.3138 381.9457,248.4708 C379.8597,249.6298 378.3757,251.2838 377.4907,253.4318 L377.4907,273.6538 L370.5387,273.6538 L370.5387,240.6028 L376.9847,240.6028 L376.9847,247.9968 C378.1217,245.7228 379.6077,243.8998 381.4397,242.5298 C383.2727,241.1628 385.2417,240.4138 387.3487,240.2868 L388.3907,240.2868 Z M372.3707,228.7869 L372.3707,235.0419 L357.4567,235.0419 L357.4567,273.6539 L350.3157,273.6539 L350.3157,235.0419 L335.3377,235.0419 L335.3377,228.7869 L372.3707,228.7869 Z M865.7261,257.4768 C863.2401,257.4768 861.2081,258.0128 859.6291,259.0878 C858.0491,260.1628 857.2581,261.5848 857.2581,263.3538 C857.2581,264.9958 857.8681,266.3768 859.0911,267.4928 C860.3141,268.6088 861.8721,269.1678 863.7681,269.1678 C865.4521,269.1678 867.0431,268.8628 868.5391,268.2508 C870.0341,267.6408 871.2021,266.7888 872.0461,265.6918 C872.9311,264.9338 873.3721,264.1338 873.3721,263.2908 L873.3721,258.9298 C872.1931,258.4668 870.9411,258.1088 869.6121,257.8548 C868.2861,257.6038 866.9901,257.4768 865.7261,257.4768 Z M461.7901,257.4768 C459.3051,257.4768 457.2721,258.0128 455.6931,259.0878 C454.1131,260.1628 453.3231,261.5848 453.3231,263.3538 C453.3231,264.9958 453.9331,266.3768 455.1551,267.4928 C456.3761,268.6088 457.9361,269.1678 459.8321,269.1678 C461.5171,269.1678 463.1071,268.8628 464.6031,268.2508 C466.0971,267.6408 467.2671,266.7888 468.1101,265.6918 C468.9951,264.9338 469.4361,264.1338 469.4361,263.2908 L469.4361,258.9298 C468.2571,258.4668 467.0041,258.1088 465.6771,257.8548 C464.3501,257.6038 463.0541,257.4768 461.7901,257.4768 Z M301.7183,257.4768 C299.2333,257.4768 297.2003,258.0128 295.6213,259.0878 C294.0413,260.1628 293.2513,261.5848 293.2513,263.3538 C293.2513,264.9958 293.8613,266.3768 295.0833,267.4928 C296.3043,268.6088 297.8643,269.1678 299.7603,269.1678 C301.4453,269.1678 303.0353,268.8628 304.5313,268.2508 C306.0253,267.6408 307.1953,266.7888 308.0383,265.6918 C308.9233,264.9338 309.3643,264.1338 309.3643,263.2908 L309.3643,258.9298 C308.1853,258.4668 306.9323,258.1088 305.6063,257.8548 C304.2783,257.6038 302.9823,257.4768 301.7183,257.4768 Z M425.453,245.9741 C424.569,245.9741 423.641,246.1431 422.673,246.4801 C421.703,246.8181 420.797,247.2811 419.956,247.8701 C419.111,248.4611 418.376,249.1451 417.744,249.9241 C417.112,250.7041 416.669,251.5571 416.416,252.4841 L416.416,261.1411 C416.837,262.1521 417.384,263.1001 418.06,263.9861 C418.733,264.8711 419.481,265.6281 420.303,266.2601 C421.124,266.8921 422.019,267.3971 422.989,267.7771 C423.957,268.1561 424.947,268.3451 425.959,268.3451 C427.433,268.3451 428.771,268.0291 429.972,267.3971 C431.172,266.7651 432.204,265.9241 433.067,264.8711 C433.931,263.8181 434.594,262.6161 435.059,261.2681 C435.522,259.9201 435.753,258.5301 435.753,257.0961 C435.753,255.5801 435.491,254.1491 434.963,252.8001 C434.437,251.4521 433.721,250.2721 432.815,249.2611 C431.909,248.2501 430.824,247.4491 429.561,246.8601 C428.296,246.2701 426.928,245.9741 425.453,245.9741 Z M620.8488,245.9745 C619.5008,245.9745 618.2268,246.2695 617.0258,246.8595 C615.8248,247.4495 614.7828,248.2505 613.8978,249.2615 C613.0118,250.2715 612.3078,251.4635 611.7798,252.8305 C611.2538,254.2015 610.9908,255.6645 610.9908,257.2235 C610.9908,258.8255 611.2438,260.2995 611.7488,261.6465 C612.2548,262.9965 612.9498,264.1655 613.8348,265.1545 C614.7198,266.1455 615.7618,266.9235 616.9638,267.4925 C618.1648,268.0615 619.4598,268.3455 620.8488,268.3455 C622.2388,268.3455 623.5358,268.0615 624.7348,267.4925 C625.9358,266.9235 626.9778,266.1345 627.8638,265.1225 C628.7488,264.1125 629.4438,262.9325 629.9498,261.5845 C630.4538,260.2365 630.7068,258.7625 630.7068,257.1605 C630.7068,255.6025 630.4538,254.1385 629.9498,252.7685 C629.4438,251.3995 628.7488,250.2085 627.8638,249.1985 C626.9778,248.1865 625.9358,247.3965 624.7348,246.8285 C623.5358,246.2595 622.2388,245.9745 620.8488,245.9745 Z M829.3911,245.9741 C828.5061,245.9741 827.5771,246.1431 826.6101,246.4801 C825.6401,246.8181 824.7331,247.2811 823.8921,247.8701 C823.0501,248.4611 822.3121,249.1451 821.6801,249.9241 C821.0481,250.7041 820.6061,251.5571 820.3531,252.4841 L820.3531,261.1411 C820.7751,262.1521 821.3231,263.1001 821.9961,263.9861 C822.6711,264.8711 823.4191,265.6281 824.2391,266.2601 C825.0621,266.8921 825.9571,267.3971 826.9261,267.7771 C827.8931,268.1561 828.8851,268.3451 829.8951,268.3451 C831.3691,268.3451 832.7081,268.0291 833.9091,267.3971 C835.1101,266.7651 836.1431,265.9241 837.0061,264.8711 C837.8671,263.8181 838.5331,262.6161 838.9961,261.2681 C839.4591,259.9201 839.6901,258.5301 839.6901,257.0961 C839.6901,255.5801 839.4281,254.1491 838.9021,252.8001 C838.3741,251.4521 837.6571,250.2721 836.7531,249.2611 C835.8461,248.2501 834.7631,247.4491 833.4991,246.8601 C832.2351,246.2701 830.8651,245.9741 829.3911,245.9741 Z M731.63,245.9745 C730.282,245.9745 729.008,246.2695 727.807,246.8595 C726.606,247.4495 725.564,248.2505 724.679,249.2615 C723.793,250.2715 723.089,251.4635 722.561,252.8305 C722.035,254.2015 721.772,255.6645 721.772,257.2235 C721.772,258.8255 722.025,260.2995 722.529,261.6465 C723.036,262.9965 723.731,264.1655 724.616,265.1545 C725.501,266.1455 726.543,266.9235 727.745,267.4925 C728.946,268.0615 730.241,268.3455 731.63,268.3455 C733.02,268.3455 734.317,268.0615 735.516,267.4925 C736.717,266.9235 737.759,266.1345 738.645,265.1225 C739.53,264.1125 740.225,262.9325 740.731,261.5845 C741.235,260.2365 741.488,258.7625 741.488,257.1605 C741.488,255.6025 741.235,254.1385 740.731,252.7685 C740.225,251.3995 739.53,250.2085 738.645,249.1985 C737.759,248.1865 736.717,247.3965 735.516,246.8285 C734.317,246.2595 733.02,245.9745 731.63,245.9745 Z M499.452,245.9741 C498.063,245.9741 496.79,246.2901 495.629,246.9231 C494.471,247.5541 493.47,248.3971 492.628,249.4501 C491.784,250.5041 491.121,251.7041 490.639,253.0531 C490.154,254.4011 489.91,255.7921 489.91,257.2231 C489.91,258.7411 490.173,260.1731 490.701,261.5201 C491.227,262.8701 491.953,264.0481 492.882,265.0601 C493.808,266.0711 494.872,266.8711 496.073,267.4611 C497.274,268.0511 498.569,268.3451 499.959,268.3451 C500.97,268.3451 501.98,268.1781 502.993,267.8401 C504.004,267.5031 504.93,267.0401 505.772,266.4491 C506.616,265.8611 507.342,265.1651 507.953,264.3641 C508.563,263.5651 508.997,262.7011 509.248,261.7741 L509.248,253.1151 C508.869,252.0641 508.334,251.0941 507.636,250.2091 C506.942,249.3241 506.153,248.5661 505.268,247.9341 C504.383,247.3031 503.444,246.8181 502.456,246.4801 C501.464,246.1431 500.465,245.9741 499.452,245.9741 Z M401.124,227.522 L401.124,235.168 L394.172,235.168 L394.172,227.522 L401.124,227.522 Z M566.313,227.522 L566.313,235.168 L559.361,235.168 L559.361,227.522 L566.313,227.522 Z" fill="#1D1D1B"></path>
            <g transform="translate(0.000300, 0.000000)" fill="#BE9639">
                <path d="M117.315131,110.490152 L117.315131,0 L127.688848,0 L127.688848,110.490152 L117.315131,110.490152 Z M153.340334,2.83153553 L153.340334,106.805995 L142.954267,108.883211 L142.954267,1.39650226 L153.340334,2.83153553 Z M102.036375,1.39749023 L102.036375,108.881729 L91.6428985,106.804513 L91.6428985,2.83252351 L102.036375,1.39749023 Z M110.405989,266.757619 C109.97622,273.495606 109.61314,278.8282 109.61314,278.8282 C48.0080806,272.724986 0,223.714031 0,164.131745 C0,116.185332 30.3455924,75.5820416 74.5647963,58.178867 C73.7077297,67.9054781 72.4431242,86.6844075 72.0998035,93.970721 C71.754013,101.247155 71.5119596,114.434147 73.475556,125.820556 C75.1847494,135.727472 79.5491204,145.948071 84.2074133,154.432304 C88.9793232,163.166 94.0525648,172.070122 96.9028671,178.380811 C99.7334099,184.708789 101.361095,188.1914 103.443249,194.83306 C105.495763,201.484599 106.883865,206.493631 107.568036,210.941987 C108.252208,215.412573 109.6329,219.45339 110.489966,230.459428 C111.356913,241.485226 111.191427,241.72234 111.191427,245.296338 C111.191427,248.865397 110.830817,260.051741 110.405989,266.757619 Z M134.588111,266.757619 C134.153403,260.051741 133.795263,248.865397 133.795263,245.296338 C133.795263,241.72234 133.642127,241.485226 134.509073,230.459428 C135.36614,219.45339 136.732013,215.412573 137.426064,210.941987 C138.122585,206.493631 139.490928,201.484599 141.548381,194.83306 C143.618185,188.1914 145.25081,184.708789 148.106053,178.380811 C150.941535,172.070122 156.027126,163.166 160.786687,154.432304 C165.44251,145.948071 169.806881,135.727472 171.516074,125.820556 C173.48708,114.434147 173.247497,101.247155 172.884417,93.970721 C172.555916,86.6844075 171.278961,67.9054781 170.421894,58.178867 C214.641098,75.5820416 244.9941,116.185332 244.9941,164.131745 C244.9941,223.714031 196.993429,272.724986 135.37602,278.8282 C135.37602,278.8282 135.01541,273.495606 134.588111,266.757619 Z"></path>
            </g>
        </g>
    </g>
</svg>